<svg width="26" height="18" viewBox="0 0 26 18" fill="none" xmlns="http://www.w3.org/2000/svg">
<g clip-path="url(#clip0_6_114)">
<path d="M6.45927 9.46182H7.5926V7.76182H9.2926V6.62848H7.5926V4.92848H6.45927V6.62848H4.75927V7.76182H6.45927V9.46182ZM4.1926 14.5618C3.56927 14.5618 3.06494 15.0718 3.06494 15.6951C3.06494 16.3185 3.56927 16.8285 4.1926 16.8285C4.81594 16.8285 5.32594 16.3185 5.32594 15.6951C5.32594 15.0718 4.81594 14.5618 4.1926 14.5618ZM9.85927 14.5618C9.23594 14.5618 8.7316 15.0718 8.7316 15.6951C8.7316 16.3185 9.23594 16.8285 9.85927 16.8285C10.4826 16.8285 10.9926 16.3185 10.9926 15.6951C10.9926 15.0718 10.4826 14.5618 9.85927 14.5618ZM4.28894 12.7201L4.30594 12.6521L4.81594 11.7285H9.0376C9.4626 11.7285 9.8366 11.4961 10.0293 11.1448L12.2166 7.17248L11.2306 6.62848H11.2249L10.6016 7.76182L9.0376 10.5951H5.0596L4.98594 10.4421L3.7166 7.76182L3.17827 6.62848L2.6456 5.49515H0.792603V6.62848H1.92594L3.96594 10.9295L3.20094 12.3178C3.11027 12.4765 3.05927 12.6635 3.05927 12.8618C3.05927 13.4851 3.56927 13.9951 4.1926 13.9951H10.9926V12.8618H4.4306C4.35694 12.8618 4.28894 12.7995 4.28894 12.7201Z" fill="white"/>
</g>
<path d="M21.9719 13.9618H21.0227V7.89151C21.0227 7.66104 21.0227 7.46378 21.0227 7.29971C21.0266 7.13174 21.0305 6.9794 21.0344 6.84268C21.0422 6.70206 21.052 6.55948 21.0637 6.41495C20.9426 6.53995 20.8293 6.64737 20.7238 6.73721C20.6184 6.82315 20.4875 6.93057 20.3313 7.05948L19.3527 7.84464L18.843 7.18253L21.1633 5.39542H21.9719V13.9618Z" fill="white"/>
<defs>
<clipPath id="clip0_6_114">
<rect width="13.6" height="13.6" fill="white" transform="translate(0.225922 4.36182)"/>
</clipPath>
</defs>
</svg>
